<?xml version="1.0" encoding="UTF-8"?>
<svg id="Layer_1" xmlns="http://www.w3.org/2000/svg" version="1.1" viewBox="0 0 1024 1024">
  <!-- Generator: Adobe Illustrator 30.0.0, SVG Export Plug-In . SVG Version: 2.1.1 Build 123)  -->
  <defs>
    <style>
      .st0 {
        fill: #fff;
      }
    </style>
  </defs>
  <path class="st0" d="M284.86,145.89H32.32l-.03,10.97c54.02,4.24,81,3.34,85.25,64.39,9.49,136.46-4.58,287.62-3.58,424.9-9.23,44.31-42.05,47.1-81.65,46.02l4.13,13.71h248.43c-.83-4.94,5.27-11.33-1.75-13.34-44.24.84-76.08-7.36-80.55-56.7-4.33-47.74,2.65-101.95.52-150.37,16.06-13.39,39.63-43.7,55.57-54.23,2.64-1.74,4.72-3.35,8.17-2.81l184,230.91c21.17,20.98,66.03,46.54,96.21,46.54h111.18v-13.74c-56.66,3.93-93.37-38.67-129.09-75.4l-202.24-247.13c2.77-5,6.41-9.43,10.09-13.8,37.68-44.66,159.81-166.25,210.01-185.28,23.49-8.9,47.89-11.71,72.76-13.75l.04-10.9h-222.35l.19,10.79c43.56,3.12,79.11,7.2,47.62,57.61-14.43,23.1-48.55,56.18-68.36,77.13-54.84,57.98-114.14,112.37-174.35,164.67v-245.68c0-1.35,5.27-21.24,6.31-23.88,10.59-26.82,51.23-28,76.06-29.66l-.02-10.97ZM971.13,145.89h-263.53v10.97c35.38,1.93,86.06-.59,90.28,45.61-6.2,158.68,9.35,325,.28,482.8-3.39,58.96-19.49,161.33-78.13,190.89-56.49,28.48-87.38-45.08-132.18-49.22-58.11-5.37-86.59,55.01-30.92,85.88,54.36,30.14,120.49,11.58,169.65-19.13,226.91-141.79,141.84-454.57,159.35-677.9,4.28-54.56,38.45-55.89,85.21-58.93l-.02-10.97Z"/>
</svg>