<?xml version="1.0" encoding="UTF-8"?>
<svg id="Layer_1" xmlns="http://www.w3.org/2000/svg" version="1.1" viewBox="0 0 1024 1024">
  <!-- Generator: Adobe Illustrator 30.0.0, SVG Export Plug-In . SVG Version: 2.1.1 Build 123)  -->
  <defs>
    <style>
      .st0 {
        fill: #fff;
      }
    </style>
  </defs>
  <path class="st0" d="M538.37,125.54c11.97-13.06,16.32-21.76,16.32-29.38,0-16.32-11.97-20.68-67.47-23.94v-29.38c48.97,3.26,76.17,4.35,113.17,4.35s64.2-1.09,113.17-4.35v29.38c-63.11,3.26-90.32,15.23-130.58,58.76l-177.37,194.78,233.96,347.12c38.09,55.5,62.03,69.64,124.05,72.91v29.38c-64.2-6.53-99.02-8.71-146.9-8.71s-82.7,2.17-147.99,8.71v-29.38c59.85-4.35,74-9.79,74-29.38,0-8.71-2.18-14.14-17.41-36.99l-184.99-288.37-48.97,52.23v228.51c0,58.76,9.79,67.47,87.05,74v29.38c-55.5-5.44-85.97-7.62-132.76-7.62s-80.52,2.18-143.64,7.62v-29.38c81.61-6.53,90.32-13.06,90.32-74V145.13c0-59.85-9.79-67.47-90.32-72.91v-29.38c65.29,5.44,99.02,7.62,143.64,7.62s76.17-2.18,137.11-7.62v29.38c-80.52,5.44-90.32,13.06-90.32,72.91v250.28l245.93-269.87Z"/>
  <path class="st0" d="M614.53,977.66c11.97,1.09,16.32,1.09,25.03,1.09,83.79,0,107.73-30.47,107.73-134.93V311.7c0-59.85-9.79-67.47-90.32-72.91v-29.38c66.38,5.44,100.11,7.62,142.55,7.62s76.17-2.18,141.46-7.62v29.38c-79.44,5.44-89.23,13.06-89.23,72.91v490.77c0,100.11-19.59,149.08-70.73,180.63-32.64,20.68-81.61,32.65-129.49,32.65-10.88,0-19.59,0-37-2.18v-35.91Z"/>
</svg>